<svg xmlns="http://www.w3.org/2000/svg" width="1200" height="630" viewBox="0 0 1200 630">
  <defs>
    <linearGradient id="bg" x1="0" y1="0" x2="1" y2="1">
      <stop offset="0%" stop-color="#fefdf8"/>
      <stop offset="100%" stop-color="#f8f1df"/>
    </linearGradient>
    <pattern id="girih" x="0" y="0" width="84" height="84" patternUnits="userSpaceOnUse">
      <polygon points="42,6 47,18 59,12 51,24 63,28 51,34 59,46 47,40 42,52 37,40 25,46 33,34 21,28 33,24 25,12 37,18" fill="none" stroke="#c8973e" stroke-width="0.6" opacity="0.12"/>
    </pattern>
  </defs>
  <rect width="1200" height="630" fill="url(#bg)"/>
  <rect width="1200" height="630" fill="url(#girih)"/>
  <rect x="34" y="34" width="1132" height="562" rx="20" fill="none" stroke="#c8973e" stroke-width="1.2" opacity="0.35"/>
  <rect x="54" y="54" width="1092" height="522" rx="18" fill="none" stroke="#c8973e" stroke-width="0.7" opacity="0.22"/>

  <circle cx="160" cy="120" r="18" fill="#e8b4b8" opacity="0.35"/>
  <circle cx="1040" cy="152" r="12" fill="#e8b4b8" opacity="0.3"/>
  <circle cx="1030" cy="500" r="16" fill="#e8b4b8" opacity="0.22"/>
  <circle cx="170" cy="510" r="12" fill="#7dad8a" opacity="0.2"/>

  <text x="600" y="120" text-anchor="middle" font-family="'Inter', 'Arial', sans-serif" font-size="22" font-weight="700" fill="#b08530" letter-spacing="3">Nowruz • Norouz • نوروز</text>
  <text x="600" y="220" text-anchor="middle" font-family="'Vazirmatn', 'Arial', sans-serif" font-size="64" font-weight="800" fill="#2c2417">نوروز 2030</text>
  <text x="600" y="286" text-anchor="middle" font-family="'Vazirmatn', 'Arial', sans-serif" font-size="30" font-weight="600" fill="#b08530">زمان دقیق تحویل سال</text>

  <line x1="420" y1="315" x2="780" y2="315" stroke="#c8973e" stroke-width="1" opacity="0.28"/>
  <polygon points="600,308 607,315 600,322 593,315" fill="#c8973e" opacity="0.36"/>

  
      <g transform="translate(120, 370)">
        <rect width="280" height="110" rx="24" fill="#fffaf0" stroke="#c8973e" stroke-width="1.1" opacity="0.96"/>
        <text x="26" y="38" font-family="'Vazirmatn', 'Arial', sans-serif" font-size="20" font-weight="700" fill="#b08530">تهران</text>
        <text x="26" y="74" font-family="'Vazirmatn', 'Arial', sans-serif" font-size="24" font-weight="600" fill="#2c2417">۳۰ اسفند ۱۴۰۸، ۱۷:۲۱</text>
      </g>
      <g transform="translate(440, 370)">
        <rect width="280" height="110" rx="24" fill="#fffaf0" stroke="#c8973e" stroke-width="1.1" opacity="0.96"/>
        <text x="26" y="38" font-family="'Vazirmatn', 'Arial', sans-serif" font-size="20" font-weight="700" fill="#b08530">UTC</text>
        <text x="26" y="74" font-family="'Vazirmatn', 'Arial', sans-serif" font-size="24" font-weight="600" fill="#2c2417">۳۰ اسفند ۱۴۰۸، ۱۳:۵۱</text>
      </g>
      <g transform="translate(760, 370)">
        <rect width="260" height="110" rx="24" fill="#fffaf0" stroke="#c8973e" stroke-width="1.1" opacity="0.96"/>
        <text x="26" y="38" font-family="'Vazirmatn', 'Arial', sans-serif" font-size="20" font-weight="700" fill="#b08530">سال خورشیدی</text>
        <text x="26" y="74" font-family="'Vazirmatn', 'Arial', sans-serif" font-size="24" font-weight="600" fill="#2c2417">1409</text>
      </g>

  <text x="600" y="560" text-anchor="middle" font-family="'Inter', 'Arial', sans-serif" font-size="20" font-weight="600" fill="#2c2417" opacity="0.45" letter-spacing="2">norouz.akhave.in</text>
</svg>